<?xml version="1.0" encoding="UTF-8"?>
<svg id="Layer_2" data-name="Layer 2" xmlns="http://www.w3.org/2000/svg" viewBox="0 0 448.51 476.73">
  <path d="m429.79,286.3c-11.47-14.47-28-26.98-49.14-37.19-11.96-5.78-25.28-10.77-39.82-14.93h0c-1.88-7.63-4.52-15.12-7.94-22.38-13.87-29.48-44.46-63.68-77.95-87.12-40.33-28.23-77.72-36.64-105.26-23.69-27.55,12.96-44.91,47.11-48.89,96.19-1.04,12.8-1.08,26.06-.21,39.14h0c-11.79,3.7-22.73,7.97-32.71,12.8-21.14,10.22-37.68,22.73-49.14,37.19-12.43,15.68-18.73,33.39-18.73,52.64s6.21,37.76,18.46,55.14c11.54,16.37,27.95,31.01,48.77,43.51,42.07,25.24,97.84,39.15,157.03,39.15s114.96-13.91,157.03-39.15c20.82-12.5,37.23-27.14,48.77-43.51,12.25-17.38,18.46-35.93,18.46-55.14s-6.3-36.95-18.73-52.64ZM116.8,198.46c1.64-20.18,5.89-38.25,12.3-52.26,6.9-15.05,16.12-25.38,27.41-30.69,6.25-2.94,13.28-4.41,21.03-4.41,6.24,0,12.96.96,20.1,2.88,14.87,3.99,31.5,12.24,48.1,23.85,31.35,21.95,59.86,53.66,72.62,80.8,1.69,3.59,3.16,7.24,4.41,10.95.15.45.28.91.43,1.36,1.72,5.32,3.01,10.73,3.84,16.19h0c2.5,16.6.86,33.67-5,49.91-3.07,8.53-7.19,16.49-12.21,23.75-5.34,7.71-13.75,12.75-23.05,13.97-47.89,6.26-90.33,4.22-121.98.27-.05,0-.09-.01-.14-.02-9.37-1.17-17.82-6.27-23.22-14.01-3.27-4.69-6.2-9.72-8.71-15.07-7.31-15.54-12.48-36-14.98-57.82h0c-.61-5.36-1.07-10.81-1.36-16.28h0c-.58-11.15-.47-22.42.42-33.36Zm290.87,197.84c-61.4,8.31-117.37,10.89-167.58,7.75,34.46-2.99,65.13-7.84,91.71-14.52,4.14-1.04,6.94-5.1,6.17-9.3-.85-4.6-5.39-7.47-9.86-6.34-35.73,9-79.26,14.6-129.83,16.73-2.34-.17-5.49-.17-9.59.03-38.14,1.93-61.11-6.23-61.11-6.23l.15.19c-9.29-2.88-18.26-6.06-26.91-9.54-4.12-1.65-8.79.34-10.45,4.45-1.65,4.12.34,8.79,4.45,10.45,17.27,6.95,35.97,12.77,55.94,17.44.13.03.26.06.39.09,21.22,4.94,43.88,8.57,67.83,10.86,20.5,1.96,42,2.94,64.42,2.94,32.42,0,66.76-2.05,102.76-6.14-4.12,2.98-8.49,5.86-13.12,8.64-39.61,23.77-92.44,36.86-148.76,36.86s-109.15-13.09-148.76-36.86c-37.46-22.48-58.46-51.78-59.39-82.72,8.55,8.42,21.79,19.46,41.05,30.64,1.27.74,2.65,1.09,4.02,1.09,2.77,0,5.46-1.43,6.95-4,2.23-3.84.92-8.75-2.91-10.98-18.65-10.83-31.09-21.44-38.7-29.07-.31-.37-.64-.75-1.01-1.15-5.88-6.35-4.61-13.1-3.29-16.65,10.59-22.71,32.99-37.91,52.64-47.39,8.36-4.04,17.49-7.67,27.29-10.87,2.69,21.42,7.8,41.59,14.88,57.54,5.96,15.85-2.67,15.54-5.5,15.05-23.01-5.62-36.46-10.88-36.67-10.96-.97-.39-1.98-.57-2.96-.57-3.19,0-6.21,1.92-7.47,5.06-1.64,4.12.37,8.79,4.49,10.43,1.49.59,37.05,14.56,93.32,21.65,21.02,2.65,42.15,3.98,63.17,3.98,11.97,0,23.89-.43,35.74-1.29,40.85-2.98,80.81-11.12,118.79-24.21,4.29-1.48,6.53-6.23,4.87-10.5-1.57-4.05-6.17-6.04-10.28-4.63-12.15,4.18-24.17,7.71-36,10.68-10.46,1.87-8.53-5.67-6.96-9.47,2.09-4.18,3.95-8.51,5.56-12.97,5.94-16.48,8.13-33.69,6.62-50.63h0c10.79,3.41,20.8,7.32,29.89,11.71,17.59,8.5,37.39,21.57,48.93,40.51,4.21,6.9,3.65,15.76-1.46,22.02-6.74,8.26-18.94,19.09-40.87,29.62-3.85,1.85-5.86,6.35-4.3,10.32,1.27,3.21,4.31,5.1,7.48,5.1,1.16,0,2.34-.25,3.46-.79,23.1-11.04,37.07-22.79,45.51-32.68,0,.43.03.84.03,1.27,0,20.25-8.6,39.85-24.78,57.37Z"/>
  <path d="m132.92,73.36c-3.02,0-5.91-1.71-7.27-4.62l-26.94-57.29c-1.89-4.01-.16-8.8,3.85-10.69,4.01-1.89,8.8-.16,10.69,3.85l26.94,57.29c1.89,4.01.16,8.8-3.85,10.69-1.1.52-2.27.77-3.41.77Z"/>
  <path d="m97.9,103c-3.02,0-5.91-1.71-7.27-4.62l-18.55-39.44c-1.89-4.01-.16-8.8,3.85-10.69,4.01-1.89,8.8-.16,10.69,3.85l18.55,39.44c1.89,4.01.16,8.8-3.85,10.69-1.1.52-2.27.77-3.41.77Z"/>
  <path d="m178.08,65.3c-3.02,0-5.91-1.71-7.27-4.62l-18.55-39.44c-1.89-4.01-.16-8.8,3.85-10.69,4.01-1.89,8.8-.16,10.69,3.85l18.55,39.44c1.89,4.01.16,8.8-3.85,10.69-1.1.52-2.27.77-3.41.77Z"/>
</svg>